<?xml version="1.0" encoding="utf-8"?><svg viewBox="0 0 48 48" xmlns="http://www.w3.org/2000/svg" xmlns:xlink="http://www.w3.org/1999/xlink"><style>:root>svg{display:none}:root>svg:target{display:block}</style><svg viewBox="0 0 48 48" id="check-circle" xmlns="http://www.w3.org/2000/svg"><path d="M21.05 33.1L35.2 18.95l-2.3-2.25-11.85 11.85-6-6-2.25 2.25zM24 44q-4.25 0-7.9-1.525-3.65-1.525-6.35-4.225-2.7-2.7-4.225-6.35Q4 28.25 4 24q0-4.2 1.525-7.85Q7.05 12.5 9.75 9.8q2.7-2.7 6.35-4.25Q19.75 4 24 4q4.2 0 7.85 1.55Q35.5 7.1 38.2 9.8q2.7 2.7 4.25 6.35Q44 19.8 44 24q0 4.25-1.55 7.9-1.55 3.65-4.25 6.35-2.7 2.7-6.35 4.225Q28.2 44 24 44zm0-20zm0 17q7.25 0 12.125-4.875T41 24q0-7.25-4.875-12.125T24 7q-7.25 0-12.125 4.875T7 24q0 7.25 4.875 12.125T24 41z"/></svg><svg viewBox="0 0 48 48" id="dark-mode" xmlns="http://www.w3.org/2000/svg"><path d="M24.1 39.95q-6.65 0-11.3-4.65T8.15 24q0-6.05 3.95-10.525Q16.05 9 21.9 8.2H22.2q-.95 1.5-1.425 3.225Q20.3 13.15 20.3 15q0 5.35 3.75 9.075Q27.8 27.8 33.1 27.8q1.85 0 3.575-.425T39.9 26.1q-.05.15-.025.15h.025q-.8 5.8-5.25 9.75T24.1 39.95z"/></svg><svg viewBox="0 0 24 24" id="download" xmlns="http://www.w3.org/2000/svg"><path d="M12.025 15.4l-4.55-4.525 1.2-1.15L11.2 12.25V3.725h1.65v8.525l2.525-2.525 1.2 1.15zm-5.5 4.375q-.975 0-1.625-.65T4.25 17.5v-2.425H5.9V17.5q0 .25.188.438.187.187.437.187h10.95q.25 0 .438-.187.187-.188.187-.438v-2.425h1.65V17.5q0 .975-.65 1.625t-1.625.65z"/></svg><svg viewBox="0 0 24 24" id="github" xmlns="http://www.w3.org/2000/svg"><path fill="none" d="M0 0h24v24H0z"/><path d="M12 2C6.475 2 2 6.475 2 12a9.994 9.994 0 006.838 9.488c.5.087.687-.213.687-.476 0-.237-.013-1.024-.013-1.862-2.512.463-3.162-.612-3.362-1.175-.113-.288-.6-1.175-1.025-1.413-.35-.187-.85-.65-.013-.662.788-.013 1.35.725 1.538 1.025.9 1.512 2.338 1.087 2.912.825.088-.65.35-1.087.638-1.337-2.225-.25-4.55-1.113-4.55-4.938 0-1.088.387-1.987 1.025-2.688-.1-.25-.45-1.275.1-2.65 0 0 .837-.262 2.75 1.026a9.28 9.28 0 012.5-.338c.85 0 1.7.112 2.5.337 1.912-1.3 2.75-1.024 2.75-1.024.55 1.375.2 2.4.1 2.65.637.7 1.025 1.587 1.025 2.687 0 3.838-2.337 4.688-4.562 4.938.362.312.675.912.675 1.85 0 1.337-.013 2.412-.013 2.75 0 .262.188.574.688.474A10.016 10.016 0 0022 12c0-5.525-4.475-10-10-10z"/></svg><svg viewBox="0 0 24 24" id="instagram" xmlns="http://www.w3.org/2000/svg"><path fill="none" d="M0 0h24v24H0z"/><path d="M12 2c2.717 0 3.056.01 4.122.06 1.065.05 1.79.217 2.428.465.66.254 1.216.598 1.772 1.153a4.908 4.908 0 011.153 1.772c.247.637.415 1.363.465 2.428.047 1.066.06 1.405.06 4.122 0 2.717-.01 3.056-.06 4.122-.05 1.065-.218 1.79-.465 2.428a4.883 4.883 0 01-1.153 1.772 4.915 4.915 0 01-1.772 1.153c-.637.247-1.363.415-2.428.465-1.066.047-1.405.06-4.122.06-2.717 0-3.056-.01-4.122-.06-1.065-.05-1.79-.218-2.428-.465a4.89 4.89 0 01-1.772-1.153 4.904 4.904 0 01-1.153-1.772c-.248-.637-.415-1.363-.465-2.428C2.013 15.056 2 14.717 2 12c0-2.717.01-3.056.06-4.122.05-1.066.217-1.79.465-2.428a4.88 4.88 0 011.153-1.772A4.897 4.897 0 015.45 2.525c.638-.248 1.362-.415 2.428-.465C8.944 2.013 9.283 2 12 2zm0 5a5 5 0 100 10 5 5 0 000-10zm6.5-.25a1.25 1.25 0 00-2.5 0 1.25 1.25 0 002.5 0zM12 9a3 3 0 110 6 3 3 0 010-6z"/></svg><svg viewBox="0 0 24 24" id="light-mode" xmlns="http://www.w3.org/2000/svg"><path d="M12 16.825q-2.025 0-3.425-1.4T7.175 12q0-2.025 1.4-3.425T12 7.175q2.025 0 3.425 1.4t1.4 3.425q0 2.025-1.4 3.425T12 16.825zm-10-3.75q-.45 0-.762-.313Q.925 12.45.925 12t.313-.763q.312-.312.762-.312h2.25q.45 0 .763.312.312.313.312.763t-.312.762q-.313.313-.763.313zm17.75 0q-.45 0-.762-.313-.313-.312-.313-.762t.313-.763q.312-.312.762-.312H22q.45 0 .763.312.312.313.312.763t-.312.762q-.313.313-.763.313zM12 5.325q-.45 0-.762-.313-.313-.312-.313-.762V2q0-.45.313-.763.312-.312.762-.312t.763.312q.312.313.312.763v2.25q0 .45-.312.762-.313.313-.763.313zm0 17.75q-.45 0-.762-.313-.313-.312-.313-.762v-2.25q0-.45.313-.762.312-.313.762-.313t.763.313q.312.312.312.762V22q0 .45-.312.762-.313.313-.763.313zm-6.225-15.8L4.525 6.05q-.325-.35-.312-.775.012-.425.312-.75.325-.325.75-.325t.775.325l1.225 1.25q.325.325.325.75t-.325.75Q7 7.6 6.562 7.587q-.437-.012-.787-.312zm12.175 12.2l-1.225-1.25q-.325-.325-.312-.738.012-.412.312-.762.3-.325.725-.312.425.012.775.312l1.25 1.225q.325.35.313.775-.013.425-.313.75-.325.325-.75.325t-.775-.325zm-1.225-12.2Q16.4 7 16.413 6.562q.012-.437.312-.787l1.225-1.25q.35-.325.775-.313.425.013.75.313.325.325.325.75t-.325.775l-1.25 1.225q-.325.325-.75.325t-.75-.325zm-12.2 12.2q-.325-.325-.325-.75t.325-.775l1.25-1.225q.325-.325.738-.312.412.012.762.312.325.3.313.725-.013.425-.313.775l-1.225 1.25q-.35.325-.775.325-.425 0-.75-.325z"/></svg><svg viewBox="0 0 24 24" id="link" xmlns="http://www.w3.org/2000/svg"><path d="M10.825 16.725H6.9q-1.95 0-3.338-1.387Q2.175 13.95 2.175 12q0-1.975 1.387-3.35Q4.95 7.275 6.9 7.275h3.925v1.65H6.9q-1.275 0-2.175.9-.9.9-.9 2.175t.9 2.175q.9.9 2.175.9h3.925zM8.1 12.8v-1.65h7.8v1.65zm5.075 3.925v-1.65H17.1q1.275 0 2.175-.9.9-.9.9-2.175t-.9-2.175q-.9-.9-2.175-.9h-3.925v-1.65H17.1q1.95 0 3.338 1.387Q21.825 10.05 21.825 12q0 1.975-1.387 3.35-1.388 1.375-3.338 1.375z"/></svg><svg viewBox="0 0 24 24" id="linkedin" xmlns="http://www.w3.org/2000/svg"><path fill="none" d="M0 0h24v24H0z"/><path d="M6.94 5a2 2 0 11-4-.002 2 2 0 014 .002zM7 8.48H3V21h4V8.48zm6.32 0H9.34V21h3.94v-6.57c0-3.66 4.77-4 4.77 0V21H22v-7.93c0-6.17-7.06-5.94-8.72-2.91l.04-1.68z"/></svg><svg viewBox="0 0 24 24" id="mail" xmlns="http://www.w3.org/2000/svg"><path d="M4.65 19.45q-.925 0-1.538-.613Q2.5 18.225 2.5 17.3V6.7q0-.925.612-1.538.613-.612 1.538-.612h14.7q.925 0 1.538.612.612.613.612 1.538v10.6q0 .925-.612 1.537-.613.613-1.538.613zM12 12.425l8.15-5.275-.4-1.25L12 11 4.25 5.9l-.4 1.25z"/></svg><svg viewBox="0 0 24 24" id="telegram" xmlns="http://www.w3.org/2000/svg"><path fill="none" d="M0 0h24v24H0z"/><path d="M12 22C6.477 22 2 17.523 2 12S6.477 2 12 2s10 4.477 10 10-4.477 10-10 10zm-3.11-8.83l.013-.007.87 2.87c.112.311.266.367.453.341.188-.025.287-.126.41-.244l1.188-1.148 2.55 1.888c.466.257.801.124.917-.432l1.657-7.822c.183-.728-.137-1.02-.702-.788l-9.733 3.76c-.664.266-.66.638-.12.803l2.497.78z"/></svg><svg viewBox="0 0 24 24" id="twitter" xmlns="http://www.w3.org/2000/svg"><path fill="none" d="M0 0h24v24H0z"/><path d="M22.162 5.656a8.384 8.384 0 01-2.402.658A4.196 4.196 0 0021.6 4c-.82.488-1.719.83-2.656 1.015a4.182 4.182 0 00-7.126 3.814 11.874 11.874 0 01-8.62-4.37 4.168 4.168 0 00-.566 2.103c0 1.45.738 2.731 1.86 3.481a4.168 4.168 0 01-1.894-.523v.052a4.185 4.185 0 003.355 4.101 4.21 4.21 0 01-1.89.072A4.185 4.185 0 007.97 16.65a8.394 8.394 0 01-6.191 1.732 11.83 11.83 0 006.41 1.88c7.693 0 11.9-6.373 11.9-11.9 0-.18-.005-.362-.013-.54a8.496 8.496 0 002.087-2.165z"/></svg></svg>