<svg width="261" height="261" viewBox="0 0 261 261" fill="none" xmlns="http://www.w3.org/2000/svg">
<g filter="url(#filter0_d_301_396)">
<rect x="40.724" y="36.4058" width="180" height="180" rx="32" fill="white"/>
<rect x="41.224" y="36.9058" width="179" height="179" rx="31.5" stroke="white"/>
</g>
<path fill-rule="evenodd" clip-rule="evenodd" d="M142.711 136.659L140.793 139.99C140.215 140.993 139.145 141.611 137.987 141.611H123.293C122.135 141.611 121.066 140.993 120.488 139.99L118.569 136.659H142.711ZM148.081 127.335L144.699 133.207H116.582L113.2 127.335H148.081ZM144.823 118.217L148.086 123.883H113.194L116.458 118.217H144.823ZM137.987 109.597C139.145 109.597 140.215 110.215 140.793 111.219L142.835 114.765H118.445L120.488 111.219C121.066 110.215 122.135 109.597 123.293 109.597H137.987Z" fill="#00435B"/>
<path d="M101.907 108.052C100.28 100.159 99.9303 94.1048 100.982 89.7089C101.608 87.0944 102.752 84.9616 104.492 83.4228C106.328 81.7982 108.651 81.0011 111.26 81.0011C115.564 81.0011 120.089 82.9638 124.924 86.6926C126.896 88.2134 128.943 90.0466 131.069 92.1931C131.238 91.9753 131.43 91.7698 131.643 91.5799C137.653 86.2239 142.713 82.8962 147.041 81.6131C149.615 80.8502 152.031 80.7775 154.231 81.5179C156.553 82.2995 158.404 83.9152 159.71 86.1782C161.864 89.9129 162.433 94.8204 161.629 100.88C161.302 103.35 160.742 106.04 159.951 108.955C160.25 108.992 160.549 109.058 160.845 109.156C168.47 111.683 173.87 114.4 177.139 117.506C179.085 119.354 180.355 121.411 180.814 123.688C181.299 126.092 180.826 128.502 179.522 130.764C177.371 134.493 173.417 137.434 167.783 139.764C165.521 140.7 162.961 141.547 160.102 142.309C160.232 142.603 160.333 142.916 160.401 143.245C162.029 151.138 162.378 157.191 161.326 161.587C160.7 164.202 159.556 166.335 157.817 167.873C155.98 169.498 153.658 170.295 151.049 170.295C146.745 170.295 142.22 168.332 137.384 164.604C135.391 163.067 133.322 161.21 131.171 159.034C130.95 159.38 130.678 159.702 130.357 159.988C124.347 165.344 119.287 168.672 114.959 169.955C112.385 170.718 109.969 170.791 107.769 170.05C105.447 169.269 103.596 167.653 102.29 165.39C100.136 161.655 99.5674 156.748 100.371 150.688C100.71 148.129 101.299 145.333 102.136 142.296C101.808 142.263 101.48 142.194 101.155 142.086C93.5295 139.559 88.1297 136.841 84.8605 133.736C82.9154 131.888 81.6453 129.831 81.1861 127.554C80.7015 125.15 81.174 122.739 82.4781 120.478C84.6288 116.749 88.5833 113.807 94.2171 111.477C96.5466 110.514 99.1914 109.644 102.155 108.865C102.049 108.606 101.966 108.335 101.907 108.052Z" fill="#002B3B"/>
<path fill-rule="evenodd" clip-rule="evenodd" d="M121.492 105.537C125.445 105.222 129.519 105.084 133.715 105.12C134.509 105.127 135.159 104.489 135.166 103.694C135.169 103.359 135.055 103.034 134.844 102.774C125.294 91.0159 117.431 85.1367 111.253 85.1367C104.876 85.1367 103.057 92.1666 105.795 106.226C105.945 106.997 106.686 107.505 107.459 107.368C112.334 106.504 117.012 105.894 121.492 105.537Z" fill="#FF4154"/>
<path fill-rule="evenodd" clip-rule="evenodd" d="M143.682 107.472C145.965 110.762 148.156 114.246 150.255 117.923C150.649 118.613 151.527 118.853 152.218 118.46C152.507 118.294 152.73 118.034 152.849 117.723C158.251 103.553 159.386 93.7814 156.255 88.4072C153.023 82.8614 145.982 84.779 135.132 94.16C134.536 94.6757 134.465 95.5756 134.975 96.1777C138.199 99.9885 141.101 103.753 143.682 107.472Z" fill="#FF4154"/>
<path fill-rule="evenodd" clip-rule="evenodd" d="M153.263 127.268C151.555 130.858 149.634 134.467 147.502 138.094C147.099 138.779 147.328 139.661 148.013 140.064C148.303 140.234 148.644 140.298 148.976 140.243C163.863 137.796 172.853 133.889 175.945 128.523C179.139 122.981 174.003 117.902 160.537 113.285C159.795 113.031 158.987 113.417 158.718 114.154C157.019 118.824 155.201 123.195 153.263 127.268Z" fill="#FF4154"/>
<path fill-rule="evenodd" clip-rule="evenodd" d="M141.048 145.851C137.095 146.166 133.021 146.305 128.825 146.268C128.03 146.261 127.38 146.9 127.373 147.694C127.37 148.029 127.484 148.354 127.695 148.614C137.245 160.373 145.109 166.252 151.286 166.252C157.664 166.252 159.483 159.222 156.744 145.162C156.594 144.392 155.854 143.884 155.081 144.021C150.205 144.885 145.527 145.495 141.048 145.851Z" fill="#FF4154"/>
<path fill-rule="evenodd" clip-rule="evenodd" d="M118.318 144.096C116.035 140.806 113.844 137.323 111.745 133.645C111.351 132.955 110.473 132.715 109.782 133.109C109.493 133.274 109.27 133.534 109.151 133.846C103.749 148.015 102.614 157.787 105.745 163.161C108.977 168.707 116.018 166.789 126.868 157.408C127.464 156.893 127.535 155.993 127.025 155.391C123.801 151.58 120.899 147.815 118.318 144.096Z" fill="#FF4154"/>
<path fill-rule="evenodd" clip-rule="evenodd" d="M108.737 123.761C110.445 120.17 112.366 116.561 114.498 112.934C114.901 112.249 114.672 111.368 113.987 110.965C113.697 110.794 113.356 110.731 113.024 110.785C98.1371 113.233 89.1474 117.14 86.0551 122.506C82.8614 128.048 87.9973 133.127 101.463 137.744C102.205 137.998 103.013 137.612 103.282 136.875C104.981 132.205 106.799 127.834 108.737 123.761Z" fill="#FF4154"/>
<path fill-rule="evenodd" clip-rule="evenodd" d="M124.474 109.777H136.809C138.613 109.777 140.279 110.742 141.177 112.306L147.37 123.098C148.261 124.65 148.261 126.559 147.37 128.111L141.177 138.902C140.279 140.467 138.613 141.432 136.809 141.432H124.474C122.671 141.432 121.005 140.467 120.107 138.902L113.913 128.111C113.023 126.559 113.023 124.65 113.913 123.098L120.107 112.306C121.005 110.742 122.671 109.777 124.474 109.777ZM134.929 113.034C136.734 113.034 138.4 114 139.298 115.566L143.617 123.1C144.506 124.651 144.506 126.557 143.617 128.109L139.298 135.643C138.4 137.209 136.734 138.175 134.929 138.175H126.354C124.55 138.175 122.883 137.209 121.985 135.643L117.667 128.109C116.777 126.557 116.777 124.651 117.667 123.1L121.985 115.566C122.883 114 124.55 113.034 126.354 113.034H134.929ZM132.903 116.596H128.38C126.578 116.596 124.912 117.56 124.014 119.124L121.732 123.095C120.839 124.649 120.839 126.56 121.732 128.113L124.014 132.085C124.912 133.648 126.578 134.612 128.38 134.612H132.903C134.706 134.612 136.371 133.648 137.269 132.085L139.551 128.113C140.444 126.56 140.444 124.649 139.551 123.095L137.269 119.124C136.371 117.56 134.706 116.596 132.903 116.596ZM130.952 120.006C132.753 120.006 134.418 120.969 135.316 122.53L135.64 123.092C136.535 124.647 136.535 126.561 135.64 128.116L135.316 128.679C134.418 130.24 132.753 131.202 130.952 131.202H130.332C128.53 131.202 126.866 130.24 125.967 128.679L125.643 128.116C124.748 126.561 124.748 124.647 125.643 123.092L125.967 122.53C126.866 120.969 128.53 120.006 130.332 120.006H130.952ZM130.642 123.365C129.841 123.365 129.101 123.792 128.701 124.485C128.3 125.177 128.3 126.031 128.701 126.724C129.101 127.417 129.841 127.844 130.641 127.844C131.443 127.844 132.182 127.417 132.582 126.724C132.983 126.031 132.983 125.177 132.582 124.485C132.182 123.792 131.443 123.365 130.642 123.365ZM112.475 125.604H116.506H112.475Z" fill="#FFD94C"/>
<defs>
<filter id="filter0_d_301_396" x="0.723999" y="0.405762" width="260" height="260" filterUnits="userSpaceOnUse" color-interpolation-filters="sRGB">
<feFlood flood-opacity="0" result="BackgroundImageFix"/>
<feColorMatrix in="SourceAlpha" type="matrix" values="0 0 0 0 0 0 0 0 0 0 0 0 0 0 0 0 0 0 127 0" result="hardAlpha"/>
<feOffset dy="4"/>
<feGaussianBlur stdDeviation="20"/>
<feComposite in2="hardAlpha" operator="out"/>
<feColorMatrix type="matrix" values="0 0 0 0 0.0367917 0 0 0 0 0.0348958 0 0 0 0 0.0484375 0 0 0 0.1 0"/>
<feBlend mode="normal" in2="BackgroundImageFix" result="effect1_dropShadow_301_396"/>
<feBlend mode="normal" in="SourceGraphic" in2="effect1_dropShadow_301_396" result="shape"/>
</filter>
</defs>
</svg>
